HIERARCHY
ROOT SpineBase
{
  OFFSET 0.000000 0.000000 0.000000
  CHANNELS 6 Xposition Yposition Zposition Zrotation Xrotation Yrotation
  JOINT SpineMid
  {
    OFFSET 0.000000 29.353632 0.000000
    CHANNELS 3 Zrotation Xrotation Yrotation
    JOINT SpineShoulder
    {
      OFFSET -0.069809 21.820850 -0.769929
      CHANNELS 3 Zrotation Xrotation Yrotation
      JOINT Neck
      {
        OFFSET -0.045828 7.219761 -0.588252
        CHANNELS 3 Zrotation Xrotation Yrotation
        JOINT Head
        {
          OFFSET -2.086719 13.079188 -0.045909
          CHANNELS 3 Zrotation Xrotation Yrotation
          End Site
          {
            OFFSET 0 0 0
          }
        }
      }
      JOINT ShoulderLeft
      {
        OFFSET -14.552625 -3.584614 6.036659
        CHANNELS 3 Zrotation Xrotation Yrotation
        JOINT ElbowLeft
        {
          OFFSET -2.429082 -29.783415 6.359049
          CHANNELS 3 Zrotation Xrotation Yrotation
          JOINT WristLeft
          {
            OFFSET 0.541068 -22.634873 -5.943289
            CHANNELS 3 Zrotation Xrotation Yrotation
            JOINT HandLeft
            {
              OFFSET 0.790879 -2.303066 -0.364946
              CHANNELS 3 Zrotation Xrotation Yrotation
              JOINT HandTipLeft
              {
                OFFSET 1.190082 -7.196066 -4.371021
                CHANNELS 3 Zrotation Xrotation Yrotation
                End Site
                {
                  OFFSET 0 0 0
                }
              }
              JOINT ThumbLeft
              {
                OFFSET 2.036837 0.013887 -5.308857
                CHANNELS 3 Zrotation Xrotation Yrotation
                End Site
                {
                  OFFSET 0 0 0
                }
              }
            }
          }
        }
      }
      JOINT ShoulderRight
      {
        OFFSET 11.043771 -3.674106 -10.930131
        CHANNELS 3 Zrotation Xrotation Yrotation
        JOINT ElbowRight
        {
          OFFSET 5.980127 -23.879757 -1.632609
          CHANNELS 3 Zrotation Xrotation Yrotation
          JOINT WristRight
          {
            OFFSET -0.089864 -22.579939 -6.560340
            CHANNELS 3 Zrotation Xrotation Yrotation
            JOINT HandRight
            {
              OFFSET -0.839978 -5.496385 -0.369938
              CHANNELS 3 Zrotation Xrotation Yrotation
              JOINT HandTipRight
              {
                OFFSET -0.089360 -4.323863 0.190884
                CHANNELS 3 Zrotation Xrotation Yrotation
                End Site
                {
                  OFFSET 0 0 0
                }
              }
              JOINT ThumbRight
              {
                OFFSET 2.568132 0.292979 -0.620867
                CHANNELS 3 Zrotation Xrotation Yrotation
                End Site
                {
                  OFFSET 0 0 0
                }
              }
            }
          }
        }
      }
    }
  }
  JOINT HipLeft
  {
    OFFSET -6.279288 0.327068 -0.470638
    CHANNELS 3 Zrotation Xrotation Yrotation
    JOINT KneeLeft
    {
      OFFSET 5.012619 -25.932817 5.804664
      CHANNELS 3 Zrotation Xrotation Yrotation
      JOINT AnkleLeft
      {
        OFFSET 3.069898 -30.152991 5.901304
        CHANNELS 3 Zrotation Xrotation Yrotation
        JOINT FootLeft
        {
          OFFSET -4.579173 -3.053576 -10.031928
          CHANNELS 3 Zrotation Xrotation Yrotation
          End Site
          {
            OFFSET 0 0 0
          }
        }
      }
    }
  }
  JOINT HipRight
  {
    OFFSET 5.548738 1.181257 -6.295526
    CHANNELS 3 Zrotation Xrotation Yrotation
    JOINT KneeRight
    {
      OFFSET 6.014101 -21.997321 1.403448
      CHANNELS 3 Zrotation Xrotation Yrotation
      JOINT AnkleRight
      {
        OFFSET 7.022450 -36.629674 11.199125
        CHANNELS 3 Zrotation Xrotation Yrotation
        JOINT FootRight
        {
          OFFSET -3.126971 -6.145962 -2.983765
          CHANNELS 3 Zrotation Xrotation Yrotation
          End Site
          {
            OFFSET 0 0 0
          }
        }
      }
    }
  }
}
MOTION
Frames: 6
Frame Time: 0.033333
38.736184 64.813548 348.444127 -0.000000 0.000000 26.218630 -0.000000 0.000000 -26.218630 -0.000000 0.000000 0.000000 -0.000000 0.000000 0.000000 0.000000 0.000000 0.000000 -0.000000 0.000000 0.000000 -0.000000 0.000000 0.000000 -0.000000 0.000000 0.000000 -0.000000 0.000000 0.000000 0.000000 0.000000 0.000000 0.000000 0.000000 0.000000 -0.000000 0.000000 0.000000 -0.000000 0.000000 0.000000 -0.000000 0.000000 0.000000 -0.000000 0.000000 0.000000 0.000000 0.000000 0.000000 0.000000 0.000000 0.000000 -0.000000 0.000000 -26.218630 -0.000000 0.000000 0.000000 -0.000000 0.000000 0.000000 0.000000 0.000000 0.000000 -0.000000 0.000000 -26.218630 -0.000000 0.000000 0.000000 -0.000000 0.000000 0.000000 0.000000 0.000000 0.000000
38.688744 64.792695 348.436201 -0.044949 -0.066318 26.494253 0.069813 0.039301 -26.494303 -0.000000 0.000000 0.000000 -0.000000 0.000000 0.000000 0.000000 0.000000 0.000000 0.318685 1.087258 -0.023712 -0.318292 -1.087373 0.017668 -2.569590 14.581983 5.694419 0.347942 -15.025458 -5.017541 0.000000 0.000000 0.000000 0.000000 0.000000 0.000000 -0.000000 0.000000 0.000000 -0.000000 0.000000 0.000000 -0.000000 0.000000 0.000000 -1.412938 0.566762 -0.067102 0.000000 0.000000 0.000000 0.000000 0.000000 0.000000 0.069813 0.039301 -26.494303 -0.000000 0.000000 0.000000 -0.000000 0.000000 0.000000 0.000000 0.000000 0.000000 0.069813 0.039301 -26.494303 -0.000000 0.000000 0.000000 1.727388 1.083022 -1.410327 0.000000 0.000000 0.000000
38.652717 64.771146 348.416710 -0.083088 -0.132925 26.840467 0.134153 0.081089 -26.840659 -0.000000 0.000000 0.000000 -0.000000 0.000000 0.000000 0.000000 0.000000 0.000000 0.636390 2.239778 -0.059535 -0.414663 -4.437092 -0.062813 -7.810276 28.973444 12.528271 0.213296 -28.373740 -9.932843 0.000000 0.000000 0.000000 0.000000 0.000000 0.000000 -0.000000 0.000000 0.000000 -0.000000 0.000000 0.000000 0.308234 -0.768867 0.098910 -2.935395 1.387929 -0.174050 0.000000 0.000000 0.000000 0.000000 0.000000 0.000000 0.134153 0.081089 -26.840659 -0.000000 0.000000 0.000000 -0.000000 0.000000 0.000000 0.000000 0.000000 0.000000 0.245380 -1.121611 -27.077846 -0.646580 1.020214 0.243954 3.147896 1.864180 -2.543467 0.000000 0.000000 0.000000
38.628102 64.748901 348.385653 -0.114442 -0.199843 27.257111 0.193259 0.125239 -27.257522 -0.000000 0.000000 0.000000 -0.000000 0.000000 0.000000 0.000000 0.000000 0.000000 0.955454 3.464858 -0.108343 -0.960398 -7.850513 -0.052607 -14.244965 38.575900 19.570797 0.241872 -37.826801 -13.782782 0.000000 0.000000 0.000000 0.000000 0.000000 0.000000 -0.000000 0.000000 0.000000 -0.000000 0.000000 0.000000 0.190169 -1.187067 0.170751 -3.815621 1.341153 -0.249888 0.000000 0.000000 0.000000 0.000000 0.000000 0.000000 0.869482 0.528620 -27.038870 -0.418971 -0.666670 -0.224948 -0.000000 0.000000 0.000000 0.000000 0.000000 0.000000 0.206823 -1.523406 -27.606506 -1.235167 2.338745 0.405826 4.721896 1.491639 -3.364395 0.000000 0.000000 0.000000
38.614899 64.725961 348.343030 -0.139032 -0.267093 27.744128 0.247387 0.171663 -27.744822 -0.000000 0.000000 0.000000 -0.000000 0.000000 0.000000 0.000000 0.000000 0.000000 1.278315 4.770515 -0.171285 -1.747856 -12.134617 -0.056761 -20.761238 43.912021 25.821039 1.357945 -43.097687 -15.777520 0.000000 0.000000 0.000000 0.000000 0.000000 0.000000 -0.000000 0.000000 0.000000 -0.000000 0.000000 0.000000 -0.106524 -1.624307 0.254115 -4.289764 0.814982 -0.340556 0.000000 0.000000 0.000000 0.000000 0.000000 0.000000 0.971998 0.652999 -27.508918 -0.420410 -0.761564 -0.243913 -0.000000 0.000000 0.000000 0.000000 0.000000 0.000000 0.067677 -1.832011 -28.204480 -1.267505 2.887750 0.545807 5.571750 1.610342 -3.950744 0.000000 0.000000 0.000000
38.613109 64.702324 348.288841 -0.156875 -0.334700 28.301551 0.296810 0.220313 -28.302580 -0.000000 0.000000 0.000000 -0.000000 0.000000 0.000000 0.000000 0.000000 0.000000 1.607574 6.165571 -0.249826 -2.810505 -17.364985 -0.127061 -25.892124 45.654872 29.960012 4.086750 -44.563754 -15.574336 0.000000 0.000000 0.000000 0.000000 0.000000 0.000000 -0.000000 0.000000 0.000000 -0.000000 0.000000 0.000000 -0.576812 -2.077768 0.346085 -4.360128 -0.159604 -0.455508 0.000000 0.000000 0.000000 0.000000 0.000000 0.000000 0.980243 0.753500 -28.076695 -0.352106 -0.792062 -0.234126 -0.154527 -0.245879 0.880469 0.000000 0.000000 0.000000 -0.169636 -2.052370 -28.873481 -1.115767 3.329188 0.685314 6.070594 1.581095 -4.288112 0.000000 0.000000 0.000000
